<svg xmlns="http://www.w3.org/2000/svg" width="980" height="360" viewBox="0 0 980 360">
  <rect width="980" height="360" rx="16" fill="#0f1419"/>
  <text x="40" y="40" fill="#e8eef7" font-family="Segoe UI, Arial" font-size="18" font-weight="700">Job Lifecycle Ě Discover ĺ Execute</text>

  <rect x="30" y="80" width="140" height="70" rx="10" fill="#243044" stroke="#3d9cf0"/>
  <text x="100" y="110" text-anchor="middle" fill="#e8eef7" font-family="Segoe UI, Arial" font-size="13" font-weight="700">1. Attribute</text>
  <text x="100" y="130" text-anchor="middle" fill="#8fa3bc" font-family="Segoe UI, Arial" font-size="11">[EasyCoreCron]</text>

  <rect x="200" y="80" width="140" height="70" rx="10" fill="#243044" stroke="#3d9cf0"/>
  <text x="270" y="110" text-anchor="middle" fill="#e8eef7" font-family="Segoe UI, Arial" font-size="13" font-weight="700">2. Discover</text>
  <text x="270" y="130" text-anchor="middle" fill="#8fa3bc" font-family="Segoe UI, Arial" font-size="11">AddAssembly</text>

  <rect x="370" y="80" width="140" height="70" rx="10" fill="#243044" stroke="#3ecf8e"/>
  <text x="440" y="110" text-anchor="middle" fill="#e8eef7" font-family="Segoe UI, Arial" font-size="13" font-weight="700">3. Schedule</text>
  <text x="440" y="130" text-anchor="middle" fill="#8fa3bc" font-family="Segoe UI, Arial" font-size="11">Job + Trigger</text>

  <rect x="540" y="80" width="140" height="70" rx="10" fill="#243044" stroke="#f0b429"/>
  <text x="610" y="110" text-anchor="middle" fill="#e8eef7" font-family="Segoe UI, Arial" font-size="13" font-weight="700">4. Fire</text>
  <text x="610" y="130" text-anchor="middle" fill="#8fa3bc" font-family="Segoe UI, Arial" font-size="11">Cron Trigger</text>

  <rect x="710" y="80" width="140" height="70" rx="10" fill="#243044" stroke="#3ecf8e"/>
  <text x="780" y="110" text-anchor="middle" fill="#e8eef7" font-family="Segoe UI, Arial" font-size="13" font-weight="700">5. Wrapper</text>
  <text x="780" y="130" text-anchor="middle" fill="#8fa3bc" font-family="Segoe UI, Arial" font-size="11">Log + Rethrow</text>

  <rect x="880" y="80" width="70" height="70" rx="10" fill="#243044" stroke="#f07178"/>
  <text x="915" y="120" text-anchor="middle" fill="#e8eef7" font-family="Segoe UI, Arial" font-size="12" font-weight="700">History</text>

  <path d="M170 115 H200" stroke="#8fa3bc" stroke-width="2"/>
  <path d="M340 115 H370" stroke="#8fa3bc" stroke-width="2"/>
  <path d="M510 115 H540" stroke="#8fa3bc" stroke-width="2"/>
  <path d="M680 115 H710" stroke="#8fa3bc" stroke-width="2"/>
  <path d="M850 115 H880" stroke="#8fa3bc" stroke-width="2"/>

  <rect x="120" y="210" width="740" height="100" rx="12" fill="#1a2332" stroke="#2f3f55"/>
  <text x="490" y="245" text-anchor="middle" fill="#e8eef7" font-family="Segoe UI, Arial" font-size="14" font-weight="700">Runtime control (shared IJobManagementService)</text>
  <text x="490" y="275" text-anchor="middle" fill="#8fa3bc" font-family="Segoe UI, Arial" font-size="12">Dashboard UI  Ě  Pause / Resume / Trigger / Delete / Update Cron  Ě  REST api/quartz</text>
  <text x="490" y="295" text-anchor="middle" fill="#8fa3bc" font-family="Segoe UI, Arial" font-size="12">HTTP Jobs Ě Recurring Ě Executing Ě Servers Ě local auth filters</text>
</svg>
